<svg xmlns="http://www.w3.org/2000/svg" version="1.0" width="100%" height="100%" viewBox="0 0 900.000000 231.000000" preserveAspectRatio="xMidYMid meet">
    <g transform="translate(0.000000,231.000000) scale(0.100000,-0.100000)" fill="#000000" stroke="none">
        <path d="M8623 2304 c5 -6 -88 -121 -129 -159 -5 -5 -35 -39 -65 -75 -29 -36 -56 -67 -59 -70 -3 -3 -48 -54 -100 -115 -52 -60 -101 -117 -109 -126 -25 -27 -60 -67 -161 -184 -52 -60 -100 -114 -105 -120 -6 -5 -27 -30 -47 -55 -20 -25 -47 -57 -60 -72 -14 -14 -81 -91 -149 -170 -68 -78 -130 -148 -139 -155 -8 -7 -38 -13 -67 -13 -61 0 -62 7 -4 80 39 49 206 245 230 271 9 9 27 29 41 45 14 16 42 49 63 74 86 99 142 164 154 176 19 19 16 31 -9 38 -13 3 -227 6 -476 6 l-453 0 -26 -27 c-88 -96 -109 -135 -77 -147 9 -3 85 -6 170 -6 128 0 156 -3 160 -15 4 -10 -26 -52 -82 -116 -49 -56 -143 -164 -209 -240 -66 -75 -174 -199 -240 -274 -274 -313 -262 -296 -229 -309 9 -3 258 -6 554 -6 l538 0 154 -162 c211 -222 253 -262 296 -284 20 -10 55 -30 77 -43 22 -14 63 -29 90 -34 28 -5 206 -11 398 -14 396 -5 384 -8 305 77 -24 25 -83 88 -133 140 -49 52 -128 136 -174 185 -197 210 -391 416 -466 492 -72 73 -85 82 -127 88 -68 10 -71 36 -11 100 10 11 61 70 112 130 52 61 99 115 105 120 7 6 68 75 136 155 68 80 130 150 136 155 6 6 35 39 64 75 29 36 56 67 59 70 4 3 49 55 101 115 52 61 101 117 109 126 9 9 27 29 40 45 90 106 167 189 178 192 7 2 13 12 13 23 0 18 -9 19 -192 19 -105 0 -188 -3 -185 -6z"/>
        <path d="M65 2281 c-38 -5 -50 -10 -50 -23 0 -13 62 -86 190 -222 6 -6 57 -63 114 -126 57 -63 146 -160 196 -215 51 -55 112 -122 135 -150 24 -27 65 -72 91 -100 97 -103 139 -150 145 -168 4 -12 -22 -49 -88 -125 -51 -59 -98 -111 -104 -117 -6 -5 -53 -59 -104 -120 -52 -60 -114 -133 -139 -161 -25 -28 -67 -75 -93 -105 -25 -30 -56 -64 -67 -76 -12 -12 -21 -26 -21 -31 0 -5 34 -12 77 -16 107 -9 1431 -6 1528 3 155 15 291 102 435 281 29 36 58 70 65 75 6 6 48 54 93 109 46 54 88 104 95 111 15 15 82 94 136 160 23 27 40 54 38 60 -2 6 -175 11 -497 13 l-494 2 -78 -80 c-43 -44 -78 -87 -78 -95 0 -12 14 -15 68 -16 37 -1 121 -4 187 -8 142 -7 145 -11 75 -101 l-45 -59 -312 0 c-214 -1 -313 2 -313 10 0 13 58 90 108 144 21 22 62 69 92 105 30 36 57 67 60 70 44 42 140 165 140 180 0 11 -26 48 -57 83 -32 34 -73 80 -93 101 -19 21 -67 73 -106 115 -39 42 -90 98 -113 125 -23 27 -48 54 -54 61 -7 7 -33 35 -60 63 -26 28 -57 57 -69 63 -31 17 -428 2 -435 -17 -4 -12 26 -50 99 -124 14 -15 59 -65 99 -111 40 -46 94 -106 120 -134 137 -145 149 -164 125 -200 -22 -34 -47 -32 -82 8 -16 17 -95 104 -174 192 -79 88 -147 162 -150 165 -4 3 -53 57 -110 120 -57 63 -125 138 -151 165 -26 28 -58 62 -72 76 -13 15 -33 32 -45 38 -21 11 -167 13 -257 2z"/>
        <path d="M3575 1670 c-32 -12 -130 -129 -130 -153 0 -22 0 -22 204 -20 263 2 333 19 426 107 48 46 54 60 29 70 -24 9 -506 6 -529 -4z"/>
        <path d="M4325 1671 c-32 -13 -137 -138 -133 -158 3 -17 20 -18 203 -16 273 2 330 18 438 116 40 37 46 52 21 61 -24 9 -506 6 -529 -3z"/>
        <path d="M5064 1667 c-31 -18 -134 -135 -134 -152 0 -24 44 -28 239 -21 248 9 294 22 399 112 51 44 53 48 36 61 -25 18 -509 18 -540 0z"/>
        <path d="M2804 1260 c-43 -45 -79 -86 -79 -93 0 -8 49 -15 167 -22 91 -5 170 -13 173 -17 9 -8 -568 -683 -591 -692 -8 -3 -178 -6 -377 -6 -199 0 -416 -5 -482 -10 -175 -15 -214 -36 -380 -205 -72 -72 -145 -150 -163 -173 l-34 -42 810 0 810 0 103 117 c57 64 111 124 119 133 8 8 57 65 109 125 52 61 99 115 105 120 6 6 54 60 106 120 83 97 139 159 190 214 9 9 45 50 80 91 63 73 198 226 287 324 28 32 43 57 41 70 -3 21 -7 21 -459 24 l-456 2 -79 -80z"/>
        <path d="M4028 1321 c-74 -27 -116 -59 -197 -151 -41 -47 -102 -116 -136 -155 -218 -247 -255 -296 -255 -340 0 -47 50 -111 97 -124 52 -15 989 -15 1068 0 81 15 149 55 203 119 25 30 53 62 61 71 9 9 68 78 131 154 63 75 136 163 162 194 45 53 48 59 48 115 0 55 -3 61 -39 97 l-39 39 -528 -1 c-475 -1 -534 -2 -576 -18z m578 -196 c6 -13 -26 -60 -82 -125 -13 -14 -59 -70 -104 -125 -119 -145 -101 -135 -251 -135 -74 0 -130 4 -134 10 -8 13 2 30 46 77 19 21 75 83 123 138 49 55 106 117 127 138 l37 37 117 0 c93 0 117 -3 121 -15z"/>
        <path d="M5610 1324 c-87 -23 -143 -69 -284 -235 -17 -19 -71 -79 -120 -134 -267 -296 -348 -393 -341 -406 4 -5 117 -9 270 -9 l263 0 28 28 c29 27 91 97 235 262 40 47 88 101 105 120 17 19 59 67 94 105 34 39 68 74 76 78 20 12 247 4 251 -9 2 -6 -15 -32 -38 -57 -66 -76 -67 -76 223 -79 185 -2 259 0 275 9 12 7 54 50 94 95 40 46 95 109 123 141 56 64 69 88 52 99 -6 4 -290 7 -631 7 -510 0 -630 -3 -675 -15z"/>
    </g>
</svg>
